0
SECTION
2
HEADER
9
$INSUNITS
70
1
9
$ACADVER
1
AC1014
9
$HANDSEED
5
FFFF
0
ENDSEC
0
SECTION
2
TABLES
0
TABLE
2
VPORT
5
8
100
AcDbSymbolTable
0
ENDTAB
0
TABLE
2
LTYPE
5
5
100
AcDbSymbolTable
0
LTYPE
5
14
100
AcDbSymbolTableRecord
100
AcDbLinetypeTableRecord
2
BYBLOCK
70
0
0
LTYPE
5
15
100
AcDbSymbolTableRecord
100
AcDbLinetypeTableRecord
2
BYLAYER
70
0
0
LTYPE
5
16
100
AcDbSymbolTableRecord
100
AcDbLinetypeTableRecord
2
DASHED
70
0
3
Dashed __ __ __ __ __ __ __ __ __ __ __ __ __ _
72
65
73
2
40
0.75
49
0.5
74
0
49
-0.25
74
0
0
ENDTAB
0
TABLE
2
LAYER
5
2
100
AcDbSymbolTable
70
2
0
LAYER
5
50
100
AcDbSymbolTableRecord
100
AcDbLayerTableRecord
2
0
70
0
62
7
6
CONTINUOUS
0
ENDTAB
0
TABLE
2
STYLE
5
3
100
AcDbSymbolTable
70
1
0
STYLE
5
11
100
AcDbSymbolTableRecord
100
AcDbTextStyleTableRecord
2
STANDARD
70
0
0
ENDTAB
0
TABLE
2
VIEW
5
6
100
AcDbSymbolTable
70
0
0
ENDTAB
0
TABLE
2
UCS
5
7
100
AcDbSymbolTable
70
0
0
ENDTAB
0
TABLE
2
APPID
5
9
100
AcDbSymbolTable
70
2
0
APPID
5
12
100
AcDbSymbolTableRecord
100
AcDbRegAppTableRecord
2
ACAD
70
0
0
ENDTAB
0
TABLE
2
DIMSTYLE
5
A
100
AcDbSymbolTable
70
1
0
ENDTAB
0
TABLE
2
BLOCK_RECORD
5
1
100
AcDbSymbolTable
70
1
0
BLOCK_RECORD
5
1F
100
AcDbSymbolTableRecord
100
AcDbBlockTableRecord
2
*MODEL_SPACE
0
BLOCK_RECORD
5
1B
100
AcDbSymbolTableRecord
100
AcDbBlockTableRecord
2
*PAPER_SPACE
0
ENDTAB
0
ENDSEC
0
SECTION
2
BLOCKS
0
BLOCK
5
20
100
AcDbEntity
100
AcDbBlockBegin
2
*MODEL_SPACE
0
ENDBLK
5
21
100
AcDbEntity
100
AcDbBlockEnd
0
BLOCK
5
1C
100
AcDbEntity
100
AcDbBlockBegin
2
*PAPER_SPACE
0
ENDBLK
5
1D
100
AcDbEntity
100
AcDbBlockEnd
0
ENDSEC
0
SECTION
2
ENTITIES
0
LINE
5
100
100
AcDbEntity
8
0
100
AcDbLine
10
-1.6105236849265907
20
1.4183902759927729
30
0
11
10.763496583470351
21
1.3044954514307583
31
0
0
LINE
5
101
100
AcDbEntity
8
0
100
AcDbLine
10
-13.433271543316399
20
0.88667922497747942
30
0
11
-1.6105236849265907
21
1.4183902759927729
31
0
0
LINE
5
102
100
AcDbEntity
8
0
100
AcDbLine
10
-13.195016440906919
20
3.5937896276533814
30
0
11
-13.422393213349361
21
1.0495274167575099
31
0
0
LINE
5
103
100
AcDbEntity
8
0
100
AcDbLine
10
-13.422393213349361
20
1.0495274167575099
30
0
11
-13.433271543316399
21
0.88667922497747942
31
0
0
LINE
5
104
100
AcDbEntity
8
0
100
AcDbLine
10
-8.6764564209419142
20
8.3291642756645317
30
0
11
-5.6413034910841144
21
8.2799994716750334
31
0
0
LINE
5
105
100
AcDbEntity
8
0
100
AcDbLine
10
-1.7574402969490015
20
6.4407213084011037
30
0
11
-5.6413034910841144
21
8.2799994716750334
31
0
0
LINE
5
106
100
AcDbEntity
8
0
100
AcDbLine
10
-1.7574402969490015
20
6.4407213084011037
30
0
11
8.4528383974701189
21
6.0826286648343428
31
0
0
LINE
5
107
100
AcDbEntity
8
0
100
AcDbLine
10
-8.6764564209419142
20
8.3291642756645317
30
0
11
-8.7094287414602096
21
8.0260390574978171
31
0
0
LINE
5
108
100
AcDbEntity
8
0
100
AcDbLine
10
-8.8313523533510061
20
7.3238494125194356
30
0
11
-8.7094287414602096
21
8.0260390574978171
31
0
0
ARC
5
109
100
AcDbEntity
8
0
100
AcDbCircle
10
-16.709163232318893
20
8.9495114461383576
30
0
40
8.0437977165354262
210
-0
220
0
230
1
100
AcDbArc
50
342.93642700000004
51
348.34013523748553
0
ARC
5
110
100
AcDbEntity
8
0
100
AcDbCircle
10
-16.644120700582214
20
8.9295470232709899
30
0
40
7.9757601259842481
210
-0
220
0
230
1
100
AcDbArc
50
339.99256000000003
51
342.93642689255807
0
ARC
5
111
100
AcDbEntity
8
0
100
AcDbCircle
10
-15.766710213405045
20
8.6100666973782243
30
0
40
7.0419952440944851
210
-0
220
0
230
1
100
AcDbArc
50
336.7830249999999
51
339.99255993855678
0
ARC
5
112
100
AcDbEntity
8
0
100
AcDbCircle
10
-12.826963028742012
20
7.349058362080009
30
0
40
3.8432055590551202
210
-0
220
0
230
1
100
AcDbArc
50
330.15781099999992
51
336.78302500249208
0
ARC
5
113
100
AcDbEntity
8
0
100
AcDbCircle
10
-10.95953270009117
20
6.2777440639572584
30
0
40
1.6902981259842536
210
-0
220
0
230
1
100
AcDbArc
50
318.13795500000009
51
330.15781185017448
0
LINE
5
114
100
AcDbEntity
8
0
100
AcDbLine
10
-13.14336583592282
20
3.6129299019491192
30
0
11
-13.189277535979484
21
3.5959162818506396
31
0
0
LINE
5
115
100
AcDbEntity
8
0
100
AcDbLine
10
-13.189277535979484
20
3.5959162818506396
30
0
11
-13.195016440906919
21
3.5937896276533814
31
0
0
LINE
5
116
100
AcDbEntity
8
0
100
AcDbLine
10
-12.95967929374263
20
3.6810104034484517
30
0
11
-13.14336583592282
21
3.6129299019491192
31
0
0
LINE
5
117
100
AcDbEntity
8
0
100
AcDbLine
10
-12.591745714550877
20
3.8175403695687082
30
0
11
-12.95967929374263
21
3.6810104034484517
31
0
0
ARC
5
118
100
AcDbEntity
8
0
100
AcDbCircle
10
-121.73669307310715
20
297.58062176631785
30
0
40
313.38373842519667
210
-0
220
0
230
1
100
AcDbArc
50
290.38208200000003
51
290.458437
0
ARC
5
119
100
AcDbEntity
8
0
100
AcDbCircle
10
-80.082429380188415
20
185.92437788362361
30
0
40
194.21077809448809
210
-0
220
0
230
1
100
AcDbArc
50
290.458437
51
290.56865599058693
0
ARC
5
120
100
AcDbEntity
8
0
100
AcDbCircle
10
-84.501807250920393
20
197.7015003699986
30
0
40
206.78978896062978
210
-0
220
0
230
1
100
AcDbArc
50
290.56865600000003
51
290.88338400000004
0
ARC
5
121
100
AcDbEntity
8
0
100
AcDbCircle
10
-12.630922536627263
20
9.3263498686028097
30
0
40
5.1697964409448804
210
-0
220
0
230
1
100
AcDbArc
50
290.88338399999998
51
296.33122375680364
0
ARC
5
122
100
AcDbEntity
8
0
100
AcDbCircle
10
-11.59619904744952
20
7.2356151574214849
30
0
40
2.8370245984251969
210
-0
220
0
230
1
100
AcDbArc
50
296.33122400000002
51
304.95345061557452
0
ARC
5
123
100
AcDbEntity
8
0
100
AcDbCircle
10
-10.871530099386934
20
6.1988890253301125
30
0
40
1.5721348346456654
210
-0
220
0
230
1
100
AcDbArc
50
304.95344999999998
51
318.13795463905046
0
LINE
5
124
100
AcDbEntity
8
0
100
AcDbLine
10
11.203423857697127
20
6.7822189194779439
30
0
11
8.4528383974701189
21
6.0826286648343428
31
0
0
LINE
5
125
100
AcDbEntity
8
0
100
AcDbLine
10
11.203423857697127
20
6.7822189194779439
30
0
11
10.763496583470351
21
1.3044954514307583
31
0
0
LWPOLYLINE
5
126
100
AcDbEntity
8
0
100
AcDbPolyline
90
32
70
1
43
0.0
10
-13.293674488830547
20
0.027302297514947019
10
-9.7841397251840121
20
-0.3118721044741779
10
14.552282523957443
20
-0.69945133833876461
10
15.148629340906158
20
-6.6242296655054353
10
10.303576556006373
20
-6.8302820137572597
42
0.045145453038054957
10
8.8126932190544665
20
-5.9460053297592852
42
0.032643096846441025
10
7.0059585371542203
20
-5.224676942572394
42
0.0087758746971022088
10
6.2751177491511134
20
-5.0009692826796499
42
0.0029256077788978002
10
5.2451659520095957
20
-4.7118838612271903
42
0.003720441211345528
10
4.2140332474077855
20
-4.4549910361616449
42
0.010978557538985464
10
3.4597252553728097
20
-4.2904516972934923
42
0.015359830342457279
10
2.5213396549702769
20
-4.1369975457779313
42
0.018820357335978397
10
1.6372426569022551
20
-4.0538771329247059
42
0.022415535686258623
10
0.70405673817207792
20
-4.0433486240370513
42
0.024589684186478875
10
-0.19574290898025279
20
-4.1179422729993167
42
0.025859113438376179
10
-1.1705175193774879
20
-4.2989365749510409
42
0.038203156967107688
10
-1.9753448471067645
20
-4.5582216611329578
42
0.028032894321484116
10
-2.3878556181170776
20
-4.7544854808025852
42
0.02714471104949678
10
-2.7795924172297806
20
-4.9970451322310545
42
0.054786311380201021
10
-3.509366861153834
20
-5.6347220852836521
10
-3.8103707482751354
20
-6.0309411079448436
10
-8.5814153942016844
20
-5.4942741268716055
10
-8.8955560986251161
20
-4.9345256694973259
42
0.032009119491511986
10
-9.3353542556277933
20
-4.3089970876320063
42
0.040759301500013785
10
-9.9171970955234858
20
-3.6946868611207435
42
0.054731682259646502
10
-10.536004930262674
20
-3.2513177924978889
42
0.032890570612784296
10
-10.868155197325112
20
-3.0922634282300314
42
0.017821645380542612
10
-11.272145733834837
20
-2.946989827257291
42
-0.0053847323171951249
10
-11.738589589581458
20
-2.7922454602472442
42
-0.029007229210544841
10
-12.020322421027792
20
-2.6767354585474856
42
-0.036069831704075635
10
-12.308777563821337
20
-2.511882457702538
42
-0.012016637923635281
10
-12.687443231229041
20
-2.2442031666828641
0
LINE
5
127
100
AcDbEntity
8
0
100
AcDbLine
10
-9.6053515804453387
20
13.322139080053342
30
0
11
5.0289041049314305
21
12.881650411333762
31
0
0
ARC
5
128
100
AcDbEntity
8
0
100
AcDbCircle
10
4.9386454804476765
20
9.8830084886118961
30
0
40
2.9999999999997975
210
0
220
-0
230
1
100
AcDbArc
50
11.602698439275946
51
88.275927084705657
0
LINE
5
129
100
AcDbEntity
8
0
100
AcDbLine
10
7.8773428156968919
20
10.486380655518811
30
0
11
8.2603751426627756
21
8.6208387225209862
31
0
0
LINE
5
130
100
AcDbEntity
8
0
100
AcDbLine
10
2.7894780329975375
20
8.1028858149512804
30
0
11
8.2603751426627756
21
8.6208387225209862
31
0
0
ARC
5
131
100
AcDbEntity
8
0
100
AcDbCircle
10
-2.2820530008903117
20
-10.947996795143586
30
0
40
19.714374330708608
210
0
220
-0
230
1
100
AcDbArc
50
75.093026000000023
51
79.720426744343143
0
ARC
5
132
100
AcDbEntity
8
0
100
AcDbCircle
10
-8.9537069639710829
20
-47.734277838204243
30
0
40
57.100754692913227
210
0
220
-0
230
1
100
AcDbArc
50
79.720425999999989
51
81.796731999999977
0
LINE
5
133
100
AcDbEntity
8
0
100
AcDbLine
10
-2.6255838235102642
20
9.0432987994892891
30
0
11
-0.80626314522766795
21
8.7822272645006265
31
0
0
ARC
5
134
100
AcDbEntity
8
0
100
AcDbCircle
10
-31.128411596947323
20
-185.82454577204075
30
0
40
196.94133146456639
210
0
220
-0
230
1
100
AcDbArc
50
81.678499999999985
51
82.308228000000014
0
LINE
5
135
100
AcDbEntity
8
0
100
AcDbLine
10
-8.0702460995036542
20
9.5633382972353722
30
0
11
-4.7690209985578811
21
9.3447924097488091
31
0
0
LINE
5
136
100
AcDbEntity
8
0
100
AcDbLine
10
-9.6500420368443045
20
9.3312611540339141
30
0
11
-8.0702460995036542
21
9.5633382972353722
31
0
0
ARC
5
137
100
AcDbEntity
8
0
100
AcDbCircle
10
-7.5021529390719026
20
3.9056142597352888
30
0
40
5.8353296220472304
210
0
220
0
230
1
100
AcDbArc
50
111.597476
51
120.48887165898806
0
LINE
5
138
100
AcDbEntity
8
0
100
AcDbLine
10
-10.933004872857664
20
8.6303755685867856
30
0
11
-10.462829971259762
21
8.934079545649924
31
0
0
LINE
5
139
100
AcDbEntity
8
0
100
AcDbLine
10
-16.87132704235071
20
9.0719155593645677
30
0
11
-10.933004872857664
21
8.6303755685867856
31
0
0
ARC
5
140
100
AcDbEntity
8
0
100
AcDbCircle
10
-13.513248206746203
20
-116.5090290804051
30
0
40
129.88996836534795
210
0
220
-0
230
1
100
AcDbArc
50
88.275927084704591
51
89.656140000000008
0
LINE
5
141
100
AcDbEntity
8
0
100
AcDbLine
10
-12.733720523628891
20
13.378600121162881
30
0
11
-15.949066645987603
21
13.373121330232195
31
0
0
ARC
5
142
100
AcDbEntity
8
0
100
AcDbCircle
10
-16.015899858014279
20
111.81899696236879
30
0
40
98.445898299212359
210
0
220
0
230
1
100
AcDbArc
50
269.51382999999993
51
270.03889711343987
0
ARC
5
143
100
AcDbEntity
8
0
100
AcDbCircle
10
-16.666878983838966
20
35.102056580600966
30
0
40
21.726196062992077
210
0
220
0
230
1
100
AcDbArc
50
267.86672000000004
51
269.51382937374024
0
ARC
5
144
100
AcDbEntity
8
0
100
AcDbCircle
10
-16.874541621109461
20
29.527217201335699
30
0
40
16.147490267716481
210
0
220
0
230
1
100
AcDbArc
50
266.46217299999995
51
267.86672004642168
0
ARC
5
145
100
AcDbEntity
8
0
100
AcDbCircle
10
-16.927098274763114
20
28.67713428469035
30
0
40
15.295784220472393
210
0
220
0
230
1
100
AcDbArc
50
264.891684
51
266.46217301206855
0
LINE
5
146
100
AcDbEntity
8
0
100
AcDbLine
10
-18.289017508981665
20
13.442102584076208
30
0
11
-19.240354143892773
21
13.54250303606414
31
0
0
ARC
5
147
100
AcDbEntity
8
0
100
AcDbCircle
10
-20.427482068897422
20
1.6704140821545228
30
0
40
11.931293678384948
210
0
220
-0
230
1
100
AcDbArc
50
84.289793764185447
51
86.961269999999999
0
ARC
5
148
100
AcDbEntity
8
0
100
AcDbCircle
10
-20.027234820984329
20
9.2100677205651653
30
0
40
4.3810238639631853
210
0
220
-0
230
1
100
AcDbArc
50
86.961270190879176
51
92.328872000000018
0
ARC
5
149
100
AcDbEntity
8
0
100
AcDbCircle
10
-20.094446546587651
20
10.862725070820225
30
0
40
2.7270003755700025
210
0
220
0
230
1
100
AcDbArc
50
92.328872079051081
51
102.17053000000007
0
ARC
5
150
100
AcDbEntity
8
0
100
AcDbCircle
10
-20.456233395795735
20
12.540232170543804
30
0
40
1.0109234694104947
210
0
220
0
230
1
100
AcDbArc
50
102.1705281902494
51
120.02291600000025
0
ARC
5
151
100
AcDbEntity
8
0
100
AcDbCircle
10
-20.596147920541608
20
12.782347547774197
30
0
40
0.73128815974285821
210
0
220
0
230
1
100
AcDbArc
50
120.02291589671982
51
133.09123399999993
0
ARC
5
152
100
AcDbEntity
8
0
100
AcDbCircle
10
-20.700322507771833
20
12.893705064321299
30
0
40
0.57879935030638252
210
0
220
0
230
1
100
AcDbArc
50
133.09123268022614
51
148.32810199999969
0
ARC
5
153
100
AcDbEntity
8
0
100
AcDbCircle
10
-20.658016065979822
20
12.867604757912435
30
0
40
0.62850907485651031
210
0
220
0
230
1
100
AcDbArc
50
148.32810417857297
51
175.35458599999973
0
ARC
5
154
100
AcDbEntity
8
0
100
AcDbCircle
10
-19.044132177618636
20
12.736467193611761
30
0
40
2.247712043282672
210
0
220
0
230
1
100
AcDbArc
50
175.35458641531073
51
187.13745999999989
0
ARC
5
155
100
AcDbEntity
8
0
100
AcDbCircle
10
-16.54714111832433
20
13.049141841990387
30
0
40
4.7642036258499019
210
0
220
0
230
1
100
AcDbArc
50
187.13745969332899
51
196.5654669999999
0
LINE
5
156
100
AcDbEntity
8
0
100
AcDbLine
10
-17.511221982738995
20
9.4539782378541588
30
0
11
-16.87132704235071
21
9.0719155593645677
31
0
0
ARC
5
157
100
AcDbEntity
8
0
100
AcDbCircle
10
-18.514321068887419
20
7.0508759144611606
30
0
40
2.6040561732283396
210
0
220
-0
230
1
100
AcDbArc
50
67.343445999999986
51
84.834606160992678
0
ARC
5
158
100
AcDbEntity
8
0
100
AcDbCircle
10
-18.555249553204792
20
6.5981181181250514
30
0
40
3.0586601574803023
210
0
220
-0
230
1
100
AcDbArc
50
84.834605999999866
51
91.160721973441213
0
ARC
5
159
100
AcDbEntity
8
0
100
AcDbCircle
10
-18.43593532638301
20
0.70932013200165345
30
0
40
8.9486666929133598
210
0
220
0
230
1
100
AcDbArc
50
91.160722999999976
51
94.254713585318456
0
ARC
5
160
100
AcDbEntity
8
0
100
AcDbCircle
10
-19.505801548360257
20
15.090100309793199
30
0
40
5.4718551722442044
210
0
220
0
230
1
100
AcDbArc
50
269.00841967122875
51
274.25471400000004
0
ARC
5
161
100
AcDbEntity
8
0
100
AcDbCircle
10
-19.582039481088877
20
10.685338334233798
30
0
40
1.0664335031383407
210
0
220
0
230
1
100
AcDbArc
50
252.06929116384302
51
269.00841999999983
0
ARC
5
162
100
AcDbEntity
8
0
100
AcDbCircle
10
-19.678613219242447
20
10.386887288319771
30
0
40
0.75274653200307695
210
0
220
0
230
1
100
AcDbArc
50
238.11010188584916
51
252.06929099999982
0
ARC
5
163
100
AcDbEntity
8
0
100
AcDbCircle
10
-19.648867107265566
20
10.434695205179128
30
0
40
0.80905307810344074
210
0
220
0
230
1
100
AcDbArc
50
224.64749323375531
51
238.11010200000024
0
ARC
5
164
100
AcDbEntity
8
0
100
AcDbCircle
10
-19.412643345081271
20
10.668029954470862
30
0
40
1.1410873642173558
210
0
220
0
230
1
100
AcDbArc
50
215.62479664413584
51
224.64749100000031
0
ARC
5
165
100
AcDbEntity
8
0
100
AcDbCircle
10
-18.415419658832445
20
11.38262505436885
30
0
40
2.3679130220083873
210
0
220
0
230
1
100
AcDbArc
50
210.18429109070283
51
215.62479800000003
0
ARC
5
166
100
AcDbEntity
8
0
100
AcDbCircle
10
-15.515893190042025
20
13.06912577469549
30
0
40
5.7222443356010428
210
0
220
0
230
1
100
AcDbArc
50
206.59437601056359
51
210.18429199999991
0
ARC
5
167
100
AcDbEntity
8
0
100
AcDbCircle
10
-11.344082021017858
20
15.157701034368518
30
0
40
10.387665504831007
210
0
220
0
230
1
100
AcDbArc
50
204.05470098399113
51
206.5943759999999
0
ARC
5
168
100
AcDbEntity
8
0
100
AcDbCircle
10
-15.11045148651891
20
13.476494887923606
30
0
40
6.2631057949743312
210
0
220
0
230
1
100
AcDbArc
50
196.56546668805677
51
204.05470099999994
0
ARC
5
169
100
AcDbEntity
8
0
100
AcDbCircle
10
0.6935306959035793
20
-4.3691001946168617
30
0
40
13.321867700787394
210
0
220
0
230
1
100
AcDbArc
50
200.40153300000006
51
207.47115296745085
0
ARC
5
170
100
AcDbEntity
8
0
100
AcDbCircle
10
19.528525834100424
20
2.6361452592900974
30
0
40
33.417402188976347
210
0
220
0
230
1
100
AcDbArc
50
196.91159300000001
51
200.40153283752952
0
LINE
5
171
100
AcDbEntity
8
0
100
AcDbLine
10
-12.443732274011236
20
-7.0848361998059781
30
0
11
-12.968875067972327
21
-5.3303966586459897
31
0
0
LINE
5
172
100
AcDbEntity
8
0
100
AcDbLine
10
-12.968875067972327
20
-5.3303966586459897
30
0
11
-14.050842173895246
21
-1.8260794495354769
31
0
0
LINE
5
173
100
AcDbEntity
8
0
100
AcDbLine
10
-14.050842173895246
20
-1.8260794495354769
30
0
11
-15.03271552664101
21
1.3175120785965868
31
0
0
LINE
5
174
100
AcDbEntity
8
0
100
AcDbLine
10
-15.607476986753445
20
8.0381725059807856
30
0
11
-20.378521632679995
21
8.5748394870540281
31
0
0
LINE
5
175
100
AcDbEntity
8
0
100
AcDbLine
10
-17.702210720737561
20
0.67854875373450818
30
0
11
-16.745825631508914
21
-2.3607732234516785
31
0
0
LINE
5
176
100
AcDbEntity
8
0
100
AcDbLine
10
-16.745825631508914
20
-2.3607732234516785
30
0
11
-15.780807023407297
21
-5.3976579654611516
31
0
0
ARC
5
177
100
AcDbEntity
8
0
100
AcDbCircle
10
-228.92799385550879
20
-72.460624824935067
30
0
40
223.44834925984236
210
0
220
-0
230
1
100
AcDbArc
50
17.028003999999978
51
17.465254000000002
0
ARC
5
178
100
AcDbEntity
8
0
100
AcDbCircle
10
-135.66691671956778
20
-43.898001492122908
30
0
40
125.91142308661405
210
0
220
-0
230
1
100
AcDbArc
50
16.355147999999996
51
17.028003960011624
0
ARC
5
179
100
AcDbEntity
8
0
100
AcDbCircle
10
-106.42573694446797
20
-35.316721850308355
30
0
40
95.437090393700728
210
0
220
-0
230
1
100
AcDbArc
50
15.500984999999993
51
16.355148031832901
0
ARC
5
180
100
AcDbEntity
8
0
100
AcDbCircle
10
-304.26834216772079
20
-90.186996138592875
30
0
40
300.74769274015722
210
0
220
-0
230
1
100
AcDbArc
50
15.166010999999999
51
15.500985000000014
0
LINE
5
181
100
AcDbEntity
8
0
100
AcDbLine
10
-13.995132019303854
20
-11.506387608529995
30
0
11
-11.126205854852683
21
-10.514503971956032
31
0
0
LINE
5
182
100
AcDbEntity
8
0
100
AcDbLine
10
-15.03271552664101
20
1.3175120785965868
30
0
11
-15.111996279310693
21
1.6600406369797738
31
0
0
LINE
5
183
100
AcDbEntity
8
0
100
AcDbLine
10
-20.378521632679995
20
8.5748394870540281
30
0
11
-17.702210720737561
21
0.67854875373450818
31
0
0
LINE
5
184
100
AcDbEntity
8
0
100
AcDbLine
10
-15.229369589428021
20
2.4499828159299786
30
0
11
-15.607476986753445
21
8.0381725059807856
31
0
0
ARC
5
185
100
AcDbEntity
8
0
100
AcDbCircle
10
-10.240775763756707
20
2.7875204322881841
30
0
40
4.9999999999982734
210
0
220
0
230
1
100
AcDbArc
50
183.87084004849376
51
193.03204404470898
0
ENDSEC
0
SECTION
2
OBJECTS
0
DICTIONARY
5
C
100
AcDbDictionary
3
ACAD_GROUP
350
D
3
ACAD_MLINESTYLE
350
17
0
DICTIONARY
5
D
100
AcDbDictionary
0
DICTIONARY
5
1A
330
C
100
AcDbDictionary
0
DICTIONARY
5
17
100
AcDbDictionary
0
ENDSEC
0
EOF
